<?xml version="1.0" encoding="UTF-8" standalone="no"?>
<svg
   xmlns:dc="http://purl.org/dc/elements/1.1/"
   xmlns:cc="http://creativecommons.org/ns#"
   xmlns:rdf="http://www.w3.org/1999/02/22-rdf-syntax-ns#"
   xmlns:svg="http://www.w3.org/2000/svg"
   xmlns="http://www.w3.org/2000/svg"
   xmlns:sodipodi="http://sodipodi.sourceforge.net/DTD/sodipodi-0.dtd"
   xmlns:inkscape="http://www.inkscape.org/namespaces/inkscape"
   height="50"
   id="Layer_1"
   version="1.1"
   viewBox="0 0 50 50"
   width="50"
   xml:space="preserve"
   inkscape:version="0.91 r13725"
   sodipodi:docname="config.svg"><metadata
     id="metadata9"><rdf:RDF><cc:Work
         rdf:about=""><dc:format>image/svg+xml</dc:format><dc:type
           rdf:resource="http://purl.org/dc/dcmitype/StillImage" /><dc:title /></cc:Work></rdf:RDF></metadata><defs
     id="defs7" /><sodipodi:namedview
     pagecolor="#ffffff"
     bordercolor="#666666"
     borderopacity="1"
     objecttolerance="10"
     gridtolerance="10"
     guidetolerance="10"
     inkscape:pageopacity="0"
     inkscape:pageshadow="2"
     inkscape:window-width="1280"
     inkscape:window-height="657"
     id="namedview5"
     showgrid="false"
     inkscape:zoom="7.375"
     inkscape:cx="53.574085"
     inkscape:cy="26.82436"
     inkscape:window-x="-8"
     inkscape:window-y="-8"
     inkscape:window-maximized="1"
     inkscape:current-layer="Layer_1" /><path
     d="m 38.193214,21.910959 -1.188713,0 c -0.96976,0 -1.783111,-0.835717 -1.783111,-1.827645 0,-0.499874 0.21114,-0.952883 0.586539,-1.288732 l 0.766423,-0.749806 c 0.758581,-0.749805 0.758581,-1.976047 0,-2.725852 l -1.743997,-1.72611 c -0.344096,-0.343658 -0.852443,-0.546736 -1.368602,-0.546736 -0.516159,0 -1.016671,0.203078 -1.368592,0.546736 l -0.735131,0.734182 c -0.351925,0.390525 -0.821173,0.601411 -1.32951,0.601411 -1.001018,0 -1.837839,-0.812295 -1.837839,-1.772978 l 0,-1.195006 c 0,-1.05441 -0.852439,-1.960425 -1.916045,-1.960425 l -2.377455,0 c -1.0636,0 -1.908223,0.898201 -1.908223,1.960425 l 0,1.18719 c 0,0.960691 -0.836798,1.772978 -1.837838,1.772978 -0.500519,0 -0.961934,-0.210884 -1.298225,-0.577972 l -0.758588,-0.749805 c -0.3441,-0.351473 -0.852445,-0.546736 -1.368605,-0.546736 -0.516163,0 -1.016668,0.203078 -1.3686,0.546736 l -1.75963,1.718302 c -0.750783,0.749806 -0.750783,1.976048 0,2.718046 l 0.735137,0.734182 c 0.391016,0.351473 0.609996,0.820096 0.609996,1.31997 0,0.999735 -0.813336,1.827645 -1.783091,1.827645 l -1.188727,0 C 10.899367,21.910959 10,22.746677 10,23.808902 l 0,1.18719 0,1.18719 c 0,1.054418 0.899367,1.89795 1.970787,1.89795 l 1.188727,0 c 0.969755,0 1.783091,0.835718 1.783091,1.827645 0,0.499868 -0.21898,0.968497 -0.609996,1.31997 l -0.735137,0.726375 c -0.750783,0.749806 -0.750783,1.976047 0,2.718038 l 1.744005,1.733925 c 0.344089,0.351472 0.852424,0.546735 1.368583,0.546735 0.516163,0 1.016674,-0.203078 1.368602,-0.546735 l 0.75859,-0.749805 c 0.328483,-0.367088 0.797707,-0.577973 1.298248,-0.577973 1.001011,0 1.837818,0.812288 1.837818,1.772978 l 0,1.18719 c 0,1.05441 0.84462,1.960425 1.916037,1.960425 l 2.377466,0 c 1.0636,0 1.908223,-0.8982 1.908223,-1.960425 l 0,-1.18719 c 0,-0.96069 0.8368,-1.772978 1.837833,-1.772978 0.500516,0 0.969761,0.218693 1.329499,0.601402 l 0.735136,0.734183 c 0.35194,0.343665 0.852447,0.546735 1.36861,0.546735 0.516155,0 1.016673,-0.20307 1.368593,-0.546735 l 1.74399,-1.733917 c 0.750791,-0.749806 0.750791,-1.976047 0,-2.725853 l -0.766407,-0.749805 c -0.375397,-0.33585 -0.586553,-0.796672 -0.586553,-1.288732 0,-0.999735 0.813357,-1.827646 1.7831,-1.827646 l 1.188716,0 c 1.063605,0 1.8222,-0.835717 1.8222,-1.897942 l 0,-1.195005 0,-1.18719 c 0.01568,-1.062225 -0.74295,-1.897943 -1.806547,-1.897943 z m -6.858668,3.085133 0,0 c 0,3.44442 -2.791936,6.248378 -6.256443,6.248378 -3.464533,0 -6.256489,-2.803958 -6.256489,-6.248378 l 0,0 0,0 c 0,-3.444412 2.791956,-6.24837 6.256489,-6.24837 3.464507,0 6.256443,2.803958 6.256443,6.24837 l 0,0 z"
     id="path3"
     style="fill:#4c637b;fill-opacity:1;stroke:none;stroke-opacity:1"
     inkscape:connector-curvature="0" /></svg>